<?xml version="1.0" encoding="UTF-8"?>
<svg width="25px" height="24px" viewBox="0 0 25 24" version="1.1" xmlns="http://www.w3.org/2000/svg" xmlns:xlink="http://www.w3.org/1999/xlink">
    <!-- Generator: Sketch 61.2 (89653) - https://sketch.com -->
    <title>Path</title>
    <desc>Created with Sketch.</desc>
    <g id="Page-1" stroke="none" stroke-width="1" fill="none" fill-rule="evenodd">
        <g id="03" transform="translate(-896.000000, -117.000000)" fill="#5883FF">
            <g id="Group-8" transform="translate(350.000000, 117.000000)">
                <path d="M569.740319,22.8585956 C569.867307,22.9697101 569.930801,23.1202604 569.930801,23.3102465 C569.930801,23.5002325 569.867307,23.6507828 569.740319,23.7618974 L569.621268,23.8809487 C569.49428,23.9603162 569.379197,24 569.276019,24 C569.172841,24 569.101411,23.9880949 569.061727,23.9642846 C569.022043,23.9404743 568.946644,23.8730119 568.835529,23.7618974 L557.965401,12.6536661 L547.071462,23.5237948 L546.9286,23.6428461 C546.817486,23.7222136 546.710339,23.7618974 546.607162,23.7618974 C546.503984,23.7618974 546.432553,23.7539606 546.392869,23.7380871 C546.353186,23.7222136 546.277786,23.6547512 546.166672,23.5356999 C546.055557,23.4166486 546,23.2621299 546,23.0721439 C546,22.8821578 546.055557,22.7316075 546.166672,22.6204929 L557.060611,11.7503643 L546.40403,0.85642536 C546.165928,0.634196249 546.165928,0.41221516 546.40403,0.190482096 C546.515145,0.0634940319 546.665695,0 546.855681,0 C547.045667,0 547.196218,0.0634940319 547.307332,0.190482096 L558.177461,11.0606108 L569.0714,0.190482096 C569.182514,0.0634940319 569.333065,0 569.523051,0 C569.713037,0 569.863587,0.0595256549 569.974702,0.178576965 C570.085816,0.297628275 570.141373,0.452146954 570.141373,0.642133003 C570.141373,0.832119051 570.085816,0.982669354 569.974702,1.09378391 L558.86647,11.7503643 L569.740319,22.8585956 Z" id="Path"></path>
            </g>
        </g>
    </g>
</svg>