<?xml version="1.0" encoding="UTF-8"?>
<svg width="31px" height="31px" viewBox="0 0 31 31" version="1.1" xmlns="http://www.w3.org/2000/svg" xmlns:xlink="http://www.w3.org/1999/xlink">
    <!-- Generator: Sketch 61.2 (89653) - https://sketch.com -->
    <title>Page 1</title>
    <desc>Created with Sketch.</desc>
    <g id="Page-1" stroke="none" stroke-width="1" fill="none" fill-rule="evenodd">
        <g id="01" transform="translate(-854.000000, -285.000000)" fill="#5883FF">
            <path d="M855.849402,298.217923 C855.849402,291.949119 860.950641,286.856043 867.214115,286.856043 C873.483949,286.856043 878.578484,291.956164 878.578484,298.217923 C878.578484,304.479683 873.483949,309.58685 867.214115,309.58685 C860.950641,309.58685 855.849402,304.486728 855.849402,298.217923 M884.731871,314.418815 L877.196761,306.885441 C879.217955,304.562252 880.441636,301.530824 880.441636,298.217923 C880.441636,290.925125 874.508511,285 867.220818,285 C859.926423,285 854,290.931827 854,298.217923 C854,305.50402 859.933126,311.435847 867.220818,311.435847 C870.534445,311.435847 873.566536,310.212433 875.890234,308.191682 L883.425258,315.725142 C883.604183,315.903684 883.844897,316 884.078565,316 C884.312232,316 884.552947,315.910729 884.731871,315.725142 C885.089376,315.367629 885.089376,314.776328 884.731871,314.418815" id="Page-1"></path>
        </g>
    </g>
</svg>