<?xml version="1.0" encoding="UTF-8"?>
<svg width="40px" height="30px" viewBox="0 0 40 30" version="1.1" xmlns="http://www.w3.org/2000/svg" xmlns:xlink="http://www.w3.org/1999/xlink">
    <!-- Generator: Sketch 61.2 (89653) - https://sketch.com -->
    <title>Fill 1</title>
    <desc>Created with Sketch.</desc>
    <g id="Page-1" stroke="none" stroke-width="1" fill="none" fill-rule="evenodd">
        <g id="02" transform="translate(-833.000000, -112.000000)" fill="#5883FF">
            <g id="Page-1" transform="translate(833.000000, 112.000000)">
                <path d="M14.9997796,30 C14.7710577,30 14.55612,29.9110437 14.3944759,29.7493195 L0.271897815,15.6267414 L0.262040492,15.6152813 L0.241845002,15.596368 C0.226858666,15.5808207 0.212192894,15.564472 0.198168248,15.5476424 L0.143832762,15.4745539 L0.100556712,15.4021868 L0.0652146038,15.3273352 L0.0372454527,15.2492781 L0.0167293991,15.1673741 L0.0102379916,15.1213733 L0.00342602066,15.0770554 C-0.00114200689,15.0256851 -0.00114200689,14.9739943 0.00342602066,14.9230247 L0.0167293991,14.8326259 L0.0372454527,14.7505617 L0.0652146038,14.6726648 L0.100476571,14.5978934 L0.14367248,14.5256865 L0.170118956,14.4905848 L0.197847684,14.4526782 C0.213234724,14.4343259 0.229743736,14.4162141 0.247615142,14.3981023 L0.269814153,14.3753423 L14.3944759,0.25076067 C14.55612,0.0891166076 14.7710577,0 14.9997796,0 C15.2285016,0 15.4435194,0.0891166076 15.6051635,0.25076067 C15.93895,0.584467104 15.93895,1.12758154 15.6051635,1.46144825 L2.92263605,14.1438955 L38.5729656,14.1438955 C39.0450752,14.1438955 39.4291101,14.5279304 39.4291101,14.9999599 C39.4291101,15.4720696 39.0450752,15.8561045 38.5729656,15.8561045 L2.92263605,15.8561045 L15.6051635,28.5385517 C15.93895,28.8723383 15.93895,29.4154528 15.6051635,29.7492393 C15.4435194,29.9109635 15.2285016,30 14.9997796,30" id="Fill-1" transform="translate(19.714555, 15.000000) scale(-1, 1) translate(-19.714555, -15.000000) "></path>
            </g>
        </g>
    </g>
</svg>